# xmcd CD database file
#
# Track frame offsets:
#	150
#	32588
#	67651
#	98213
#	125692
#	154666
#	191864
#	231405
#
# Disc length: 3466 seconds
#
# Revision: 0
# Processed by: cddbd v1.5.1PL0 Copyright (c) Steve Scherf et al.
# Submitted via: CDex 1.51
#
DISCID=660d8808
DTITLE=Jimmy Greene - Introducing Jimmy Greene
DYEAR=1997
DGENRE=Jazz
TTITLE0=No Doubt
TTITLE1=Con Alma
TTITLE2=Spring Can Really Hang You Up The Most
TTITLE3=Nelba's Struggle
TTITLE4=Re-Affirmation
TTITLE5=I Love You
TTITLE6=My Flower
TTITLE7=Fly Little Bird Fly
EXTD=YEAR: 1997
EXTT0=
EXTT1=
EXTT2=
EXTT3=
EXTT4=
EXTT5=
EXTT6=
EXTT7=
PLAYORDER=
